<svg width="6.28313" height="6.16992" version="1.1" viewBox="0 0 41.2331 57.2646" xmlns="http://www.w3.org/2000/svg">
 <path d="m-8.54114 26.7561h14.4657v11.801h23.6563c1.849 0 3.11792-.36255 3.80677-1.08765.68884-.76135 1.03326-2.17529 1.03326-4.24182v-6.4715h14.4657v10.5502c0 6.92469-1.28705 11.9822-3.86115 15.1727-2.61035 3.19043-6.70716 4.78565-12.2904 4.78565l-41.2762-18.7075zm48.1827-6.30835c-13.4239 0-13.4239-20.4478 0-20.4478 13.5101 0 13.5101 20.4478 0 20.4478zm-36.1642 0c-13.4239 0-13.4239-20.4478 0-20.4478 13.5101 0 13.5101 20.4478 0 20.4478z" fill="#000" aria-label="t:"/>
</svg>
